<?xml version="1.0" encoding="UTF-8"?>
<svg id="Vrstva_1" data-name="Vrstva 1" xmlns="http://www.w3.org/2000/svg" viewBox="0 0 815.39 180.76">
  <defs>
    <style>
      .cls-1, .cls-2 {
        fill: #efc08d;
      }

      .cls-1, .cls-2, .cls-3 {
        stroke-linecap: square;
      }

      .cls-1, .cls-2, .cls-3, .cls-4 {
        stroke: #232391;
        stroke-miterlimit: 10;
      }

      .cls-1, .cls-3, .cls-4 {
        stroke-width: 5.87px;
      }

      .cls-2 {
        stroke-width: 8.8px;
      }

      .cls-5 {
        fill: #232391;
      }

      .cls-3, .cls-4 {
        fill: none;
      }
    </style>
  </defs>
  <g>
    <path class="cls-5" d="M142.89,133.45l-6.05,18.8h-16.64l26.69-76.94h21.4l26.69,76.94h-16.64l-5.94-18.8h-29.5ZM166.45,114.75c-3.13-9.94-6.16-20.1-8.75-30.04h-.22c-2.59,9.94-5.51,20.1-8.65,30.04l-1.62,5.08h20.86l-1.62-5.08Z"/>
    <path class="cls-5" d="M236.8,97.14v13.08c-1.73-.32-3.24-.54-4.75-.54-9.29,0-14.26,5.84-14.26,16.64v25.94h-15.13v-54.9h13.94v7.78h.22c3.67-5.94,8.54-8.65,15.02-8.65,1.51,0,3.46.22,4.97.65Z"/>
    <path class="cls-5" d="M293.75,117.78h-15.78c-.54-6.48-4.43-10.48-10.27-10.48-7.35,0-11.78,6.7-11.78,17.51s4.43,17.51,11.78,17.51c5.83,0,9.73-4.43,10.16-11.56h15.89c-1.19,13.94-11.13,23.23-25.94,23.23-16.75,0-27.66-11.45-27.66-29.18s10.91-29.18,27.66-29.18c14.8,0,24.75,9.29,25.94,22.15Z"/>
    <path class="cls-5" d="M319.79,103.41c3.89-4.97,9.29-7.35,15.13-7.35,12.32,0,20.21,7.56,20.21,22.48v33.72h-15.13v-32.2c0-8.32-3.67-12.1-9.62-12.1-6.27,0-10.81,4.86-10.81,14.91v29.39h-15.13v-76.94h15.13v28.1h.22Z"/>
    <path class="cls-5" d="M414.35,117.35v19.88c0,6.92.54,11.35,1.51,15.02h-13.62c-.54-2.27-.76-4.65-.76-7.35h-.22c-4.11,5.84-10.27,8.65-17.83,8.65-11.67,0-18.69-7.13-18.69-16.64,0-8.97,5.4-15.02,21.29-17.51,4.11-.65,10.27-1.3,13.72-1.51v-1.94c0-6.92-3.67-9.73-8.97-9.73-5.62,0-8.86,3.13-9.08,8.32h-14.7c.54-10.48,8.1-18.91,23.77-18.91s23.56,7.35,23.56,21.72ZM399.76,127.07c-3.24.22-7.78.65-11.02,1.19-6.27,1.08-8.86,3.13-8.86,7.56,0,4.11,2.81,6.92,8.1,6.92,3.13,0,6.48-.97,8.65-3.13,2.59-2.59,3.13-5.51,3.13-10.48v-2.05Z"/>
    <path class="cls-5" d="M462.98,135.61h15.45c-2.16,10.05-11.67,18.37-26.26,18.37-17.29,0-27.34-12.1-27.34-29.61,0-16.21,10.05-28.75,27.23-28.75,12.64,0,21.94,7.13,25.39,18.26,1.19,3.78,1.73,8,1.73,14.05h-39.44c.43,11.35,5.94,15.35,12.43,15.35,6.05,0,10.05-3.24,10.81-7.67ZM440.07,118.43h23.99c-.97-8.32-5.94-12.1-11.99-12.1s-10.81,3.78-12,12.1Z"/>
    <path class="cls-5" d="M544.02,124.8c0,17.83-10.91,29.18-28.1,29.18s-28.1-11.35-28.1-29.18,10.91-29.18,28.1-29.18,28.1,11.35,28.1,29.18ZM503.72,124.8c0,10.7,4.75,17.51,12.21,17.51s12.21-6.81,12.21-17.51-4.75-17.51-12.21-17.51-12.21,6.81-12.21,17.51Z"/>
    <path class="cls-5" d="M575.04,152.25l-26.48-76.94h10.37l11.78,34.26c3.78,10.91,7.24,21.94,10.7,32.96h.22c3.46-11.02,7.02-22.04,10.81-32.96l11.67-34.26h10.48l-26.58,76.94h-12.97Z"/>
    <path class="cls-5" d="M657.92,117.13v21.07c0,6.05.54,10.7,1.3,14.05h-8.65c-.54-2.49-.76-5.51-.76-8h-.22c-3.78,5.84-10.16,9.19-19.02,9.19-11.45,0-18.59-6.81-18.59-16.1s5.08-14.8,20.86-17.29c4.86-.76,11.56-1.51,15.89-1.84v-2.16c0-9.08-5.08-12.86-12.43-12.86-8,0-12.21,4.43-12.54,10.91h-9.51c.54-10.37,8.1-18.26,22.04-18.26s21.61,6.81,21.61,21.29ZM648.74,125.45c-4.21.32-10.16.97-14.37,1.73-9.4,1.4-12.64,4.11-12.64,9.51s4.11,9.4,11.24,9.4c4.43,0,8.65-1.51,11.35-4.32,3.35-3.46,4.43-6.48,4.43-12.97v-3.35Z"/>
    <path class="cls-5" d="M672.19,130.85v-33.5h9.51v32.74c0,11.46,4.75,15.56,12.64,15.56s14.26-5.83,14.26-16.86v-31.45h9.51v54.9h-9.19v-7.24h-.22c-3.35,5.08-9.4,8.43-16.75,8.43-12.54,0-19.78-7.56-19.78-22.58Z"/>
    <path class="cls-5" d="M734.97,152.25v-76.94h9.51v76.94h-9.51Z"/>
    <path class="cls-5" d="M784.57,144.25v7.78c-1.62.43-4.11.65-6.05.65-10.48,0-14.91-4.43-14.91-15.78v-31.99h-9.51v-7.56h9.51v-13.29h9.51v13.29h10.91v7.56h-10.91v31.01c0,6.27,2.05,8.86,7.56,8.86,1.4,0,2.92-.22,3.89-.54Z"/>
  </g>
  <g>
    <path class="cls-2" d="M102.37,55.59l10.17-28.77H43.58l10.17,28.77s-21.53,15.3-19.74,29.38c1.79,14.08,22.73,62.44,22.73,62.44h42.64s20.93-48.36,22.73-62.44-19.74-29.38-19.74-29.38Z"/>
    <polyline class="cls-4" points="105.41 63.12 94.69 73.49 80.58 73.49 66.38 87.2"/>
    <polyline class="cls-4" points="120.04 72.18 107.58 87.37 85.63 87.37 85.6 105.93"/>
    <line class="cls-4" x1="49.53" y1="129.76" x2="65.11" y2="129.44"/>
    <polyline class="cls-4" points="43.47 66.99 64.14 66.99 77.25 50.43"/>
    <circle class="cls-1" cx="62.3" cy="91.88" r="4.3"/>
    <circle class="cls-4" cx="70.03" cy="129.44" r="4.3"/>
    <circle class="cls-3" cx="85.52" cy="110.23" r="4.3"/>
    <circle class="cls-1" cx="79.34" cy="48.1" r="4.3"/>
  </g>
</svg>