<svg width="170" height="68" viewBox="0 0 170 68" fill="none" xmlns="http://www.w3.org/2000/svg">
<rect width="170" height="68" fill="#1E1E1E"/>
<g clip-path="url(#clip0_0_1)">
<path d="M114.64 14H112.333L115.848 3.81818H118.622L122.132 14H119.825L117.275 6.14489H117.195L114.64 14ZM114.496 9.99787H119.945V11.6783H114.496V9.99787ZM123.318 14V6.36364H125.371V7.69602H125.451C125.59 7.22206 125.824 6.86411 126.152 6.62216C126.48 6.37689 126.858 6.25426 127.285 6.25426C127.391 6.25426 127.506 6.26089 127.628 6.27415C127.751 6.28741 127.859 6.30563 127.951 6.32883V8.2081C127.852 8.17827 127.714 8.15175 127.539 8.12855C127.363 8.10535 127.202 8.09375 127.056 8.09375C126.745 8.09375 126.467 8.1617 126.221 8.29759C125.979 8.43016 125.787 8.61577 125.645 8.8544C125.505 9.09304 125.436 9.36813 125.436 9.67969V14H123.318ZM132.141 14.1491C131.359 14.1491 130.686 13.9834 130.123 13.652C129.563 13.3172 129.132 12.8532 128.83 12.2599C128.532 11.6667 128.383 10.9839 128.383 10.2116C128.383 9.42945 128.533 8.74337 128.835 8.15341C129.14 7.56013 129.573 7.09777 130.133 6.76633C130.693 6.43158 131.359 6.2642 132.131 6.2642C132.797 6.2642 133.381 6.38518 133.881 6.62713C134.382 6.86908 134.778 7.20881 135.069 7.64631C135.361 8.08381 135.522 8.59754 135.552 9.1875H133.553C133.497 8.80634 133.348 8.49976 133.106 8.26776C132.867 8.03243 132.554 7.91477 132.166 7.91477C131.838 7.91477 131.551 8.00426 131.306 8.18324C131.064 8.3589 130.875 8.61577 130.739 8.95384C130.603 9.2919 130.535 9.70123 130.535 10.1818C130.535 10.669 130.602 11.0833 130.734 11.4247C130.87 11.7661 131.061 12.0263 131.306 12.2053C131.551 12.3842 131.838 12.4737 132.166 12.4737C132.408 12.4737 132.625 12.424 132.817 12.3246C133.013 12.2251 133.174 12.081 133.3 11.892C133.429 11.6998 133.513 11.4695 133.553 11.201H135.552C135.519 11.7843 135.359 12.2981 135.074 12.7422C134.793 13.183 134.403 13.5277 133.906 13.7763C133.409 14.0249 132.821 14.1491 132.141 14.1491ZM139.026 9.58523V14H136.908V3.81818H138.966V7.71094H139.055C139.228 7.26018 139.506 6.9072 139.891 6.65199C140.275 6.39347 140.757 6.2642 141.337 6.2642C141.868 6.2642 142.33 6.38021 142.724 6.61222C143.122 6.84091 143.43 7.17069 143.649 7.60156C143.871 8.02912 143.981 8.54119 143.977 9.13778V14H141.859V9.51562C141.863 9.04498 141.743 8.67874 141.501 8.4169C141.263 8.15507 140.928 8.02415 140.497 8.02415C140.209 8.02415 139.954 8.08546 139.732 8.2081C139.513 8.33073 139.34 8.50971 139.214 8.74503C139.092 8.97704 139.029 9.2571 139.026 9.58523ZM147.822 14.1442C147.334 14.1442 146.9 14.0597 146.519 13.8906C146.138 13.7183 145.836 13.4647 145.614 13.13C145.395 12.7919 145.286 12.371 145.286 11.8672C145.286 11.4429 145.364 11.0866 145.52 10.7983C145.675 10.5099 145.888 10.2779 146.156 10.1023C146.425 9.92661 146.729 9.79403 147.071 9.70455C147.416 9.61506 147.777 9.55208 148.155 9.51562C148.599 9.46922 148.957 9.42614 149.229 9.38636C149.5 9.34328 149.698 9.2803 149.82 9.19744C149.943 9.11458 150.004 8.99195 150.004 8.82955V8.79972C150.004 8.48485 149.905 8.24124 149.706 8.06889C149.51 7.89654 149.232 7.81037 148.871 7.81037C148.489 7.81037 148.186 7.89489 147.961 8.06392C147.735 8.22964 147.586 8.43845 147.513 8.69034L145.555 8.53125C145.654 8.06723 145.849 7.66619 146.141 7.32812C146.433 6.98674 146.809 6.7249 147.27 6.54261C147.734 6.35701 148.271 6.2642 148.881 6.2642C149.305 6.2642 149.711 6.31392 150.099 6.41335C150.49 6.51278 150.836 6.6669 151.138 6.87571C151.443 7.08452 151.683 7.35298 151.858 7.68111C152.034 8.00592 152.122 8.39536 152.122 8.84943V14H150.113V12.9411H150.054C149.931 13.1797 149.767 13.3902 149.562 13.5724C149.356 13.7514 149.109 13.8923 148.821 13.995C148.532 14.0945 148.199 14.1442 147.822 14.1442ZM148.428 12.6825C148.74 12.6825 149.015 12.6212 149.253 12.4986C149.492 12.3726 149.679 12.2036 149.815 11.9915C149.951 11.7794 150.019 11.5391 150.019 11.2706V10.4602C149.953 10.5033 149.862 10.5431 149.746 10.5795C149.633 10.6127 149.505 10.6442 149.363 10.674C149.22 10.7005 149.078 10.7254 148.935 10.7486C148.793 10.7685 148.663 10.7867 148.547 10.8033C148.299 10.8397 148.082 10.8977 147.896 10.9773C147.711 11.0568 147.566 11.1645 147.464 11.3004C147.361 11.433 147.309 11.5987 147.309 11.7976C147.309 12.0859 147.414 12.3063 147.623 12.4588C147.835 12.608 148.103 12.6825 148.428 12.6825ZM157.245 14.1491C156.46 14.1491 155.784 13.9901 155.217 13.6719C154.653 13.3504 154.219 12.8963 153.914 12.3097C153.609 11.7197 153.457 11.022 153.457 10.2166C153.457 9.43111 153.609 8.74171 153.914 8.14844C154.219 7.55516 154.648 7.0928 155.202 6.76136C155.759 6.42992 156.412 6.2642 157.161 6.2642C157.664 6.2642 158.133 6.34541 158.568 6.50781C159.005 6.6669 159.386 6.9072 159.711 7.22869C160.039 7.55019 160.294 7.95455 160.477 8.44176C160.659 8.92566 160.75 9.49242 160.75 10.142V10.7237H154.302V9.41122H158.757C158.757 9.1063 158.69 8.83617 158.558 8.60085C158.425 8.36553 158.241 8.18158 158.006 8.04901C157.774 7.91312 157.504 7.84517 157.195 7.84517C156.874 7.84517 156.589 7.91974 156.34 8.06889C156.095 8.21473 155.903 8.41193 155.764 8.66051C155.624 8.90578 155.553 9.17921 155.55 9.48082V10.7287C155.55 11.1065 155.619 11.433 155.759 11.7081C155.901 11.9832 156.102 12.1953 156.36 12.3445C156.619 12.4936 156.925 12.5682 157.28 12.5682C157.515 12.5682 157.731 12.535 157.926 12.4688C158.122 12.4025 158.289 12.303 158.428 12.1705C158.568 12.0379 158.674 11.8755 158.747 11.6832L160.705 11.8125C160.606 12.2831 160.402 12.6941 160.094 13.0455C159.789 13.3935 159.395 13.6652 158.911 13.8608C158.43 14.053 157.875 14.1491 157.245 14.1491ZM165.583 14.1491C164.81 14.1491 164.142 13.9851 163.579 13.657C163.019 13.3255 162.586 12.8648 162.281 12.2749C161.977 11.6816 161.824 10.9938 161.824 10.2116C161.824 9.42282 161.977 8.73343 162.281 8.14347C162.586 7.55019 163.019 7.08949 163.579 6.76136C164.142 6.42992 164.81 6.2642 165.583 6.2642C166.355 6.2642 167.021 6.42992 167.581 6.76136C168.145 7.08949 168.579 7.55019 168.884 8.14347C169.189 8.73343 169.341 9.42282 169.341 10.2116C169.341 10.9938 169.189 11.6816 168.884 12.2749C168.579 12.8648 168.145 13.3255 167.581 13.657C167.021 13.9851 166.355 14.1491 165.583 14.1491ZM165.593 12.5085C165.944 12.5085 166.237 12.4091 166.472 12.2102C166.708 12.008 166.885 11.733 167.004 11.3849C167.127 11.0369 167.188 10.6409 167.188 10.1967C167.188 9.7526 167.127 9.35653 167.004 9.00852C166.885 8.66051 166.708 8.38542 166.472 8.18324C166.237 7.98106 165.944 7.87997 165.593 7.87997C165.238 7.87997 164.94 7.98106 164.698 8.18324C164.459 8.38542 164.278 8.66051 164.156 9.00852C164.036 9.35653 163.977 9.7526 163.977 10.1967C163.977 10.6409 164.036 11.0369 164.156 11.3849C164.278 11.733 164.459 12.008 164.698 12.2102C164.94 12.4091 165.238 12.5085 165.593 12.5085ZM114.724 20.8182L117.185 28.554H117.28L119.746 20.8182H122.132L118.622 31H115.848L112.333 20.8182H114.724ZM124.648 31.1442C124.161 31.1442 123.726 31.0597 123.345 30.8906C122.964 30.7183 122.662 30.4647 122.44 30.13C122.222 29.7919 122.112 29.371 122.112 28.8672C122.112 28.4429 122.19 28.0866 122.346 27.7983C122.502 27.5099 122.714 27.2779 122.982 27.1023C123.251 26.9266 123.556 26.794 123.897 26.7045C124.242 26.6151 124.603 26.5521 124.981 26.5156C125.425 26.4692 125.783 26.4261 126.055 26.3864C126.326 26.3433 126.524 26.2803 126.646 26.1974C126.769 26.1146 126.83 25.992 126.83 25.8295V25.7997C126.83 25.4848 126.731 25.2412 126.532 25.0689C126.336 24.8965 126.058 24.8104 125.697 24.8104C125.316 24.8104 125.012 24.8949 124.787 25.0639C124.562 25.2296 124.412 25.4384 124.339 25.6903L122.381 25.5312C122.48 25.0672 122.676 24.6662 122.967 24.3281C123.259 23.9867 123.635 23.7249 124.096 23.5426C124.56 23.357 125.097 23.2642 125.707 23.2642C126.131 23.2642 126.537 23.3139 126.925 23.4134C127.316 23.5128 127.662 23.6669 127.964 23.8757C128.269 24.0845 128.509 24.353 128.685 24.6811C128.86 25.0059 128.948 25.3954 128.948 25.8494V31H126.94V29.9411H126.88C126.757 30.1797 126.593 30.3902 126.388 30.5724C126.182 30.7514 125.935 30.8923 125.647 30.995C125.359 31.0945 125.026 31.1442 124.648 31.1442ZM125.254 29.6825C125.566 29.6825 125.841 29.6212 126.08 29.4986C126.318 29.3726 126.505 29.2036 126.641 28.9915C126.777 28.7794 126.845 28.5391 126.845 28.2706V27.4602C126.779 27.5033 126.688 27.5431 126.572 27.5795C126.459 27.6127 126.331 27.6442 126.189 27.674C126.046 27.7005 125.904 27.7254 125.761 27.7486C125.619 27.7685 125.49 27.7867 125.374 27.8033C125.125 27.8397 124.908 27.8977 124.722 27.9773C124.537 28.0568 124.393 28.1645 124.29 28.3004C124.187 28.433 124.136 28.5987 124.136 28.7976C124.136 29.0859 124.24 29.3063 124.449 29.4588C124.661 29.608 124.929 29.6825 125.254 29.6825ZM135.488 27.7486V23.3636H137.606V31H135.573V29.6129H135.493C135.321 30.0604 135.034 30.42 134.633 30.6918C134.235 30.9635 133.75 31.0994 133.176 31.0994C132.666 31.0994 132.217 30.9834 131.829 30.7514C131.441 30.5194 131.138 30.1896 130.919 29.7621C130.704 29.3345 130.595 28.8224 130.591 28.2259V23.3636H132.709V27.848C132.712 28.2988 132.833 28.6551 133.072 28.9169C133.311 29.1787 133.631 29.3097 134.032 29.3097C134.287 29.3097 134.525 29.2517 134.748 29.1357C134.97 29.0163 135.149 28.8407 135.284 28.6087C135.424 28.3767 135.492 28.09 135.488 27.7486ZM141.418 20.8182V31H139.3V20.8182H141.418ZM147.176 23.3636V24.9545H142.578V23.3636H147.176ZM143.622 21.5341H145.74V28.6534C145.74 28.849 145.77 29.0014 145.829 29.1108C145.889 29.2169 145.972 29.2914 146.078 29.3345C146.187 29.3776 146.313 29.3991 146.456 29.3991C146.555 29.3991 146.654 29.3909 146.754 29.3743C146.853 29.3544 146.93 29.3395 146.983 29.3295L147.316 30.9055C147.21 30.9387 147.06 30.9768 146.868 31.0199C146.676 31.0663 146.442 31.0945 146.167 31.1044C145.657 31.1243 145.209 31.0563 144.825 30.9006C144.444 30.7448 144.147 30.5028 143.935 30.1747C143.723 29.8466 143.618 29.4323 143.622 28.9318V21.5341Z" fill="#0000DC"/>
<path d="M-0.0599976 3V29.6H4.08V3H-0.0599976ZM4.23 3L6.82 29.6H8.22L5.64 3H4.23ZM10.96 3L8.38 29.6H9.78L12.37 3H10.96ZM12.52 3V29.6H16.7V3H12.52ZM28.21 3V23.48C28.21 27.05 31.44 29.83 34.9 29.83C38.36 29.83 41.59 27.05 41.59 23.48V3H37.41V23.33C37.41 24.77 36.12 25.8 34.9 25.8C33.68 25.8 32.39 24.77 32.39 23.33V3H28.21ZM54.47 3V29.6H58.65V3H54.47ZM58.8 3L62.75 29.6H64.2L60.25 3H58.8ZM64.35 3V29.6H68.53V3H64.35ZM82.4 28.12V29.6H93.76V28.12H90.15V4.48H93.76V3H82.4V4.48H85.97V28.12H82.4Z" fill="#0000DC"/>
<path d="M6.21 41.5L0.470001 68.1H2.6L4.39 59.7H12.14L13.96 68.1H16.09L10.43 41.5H8.38L11.8 57.8H4.73L8.22 41.5H6.21ZM28.93 41.5V68.1H30.99V56.85H34.44L40.75 68.1H43.11L36.61 56.62C39.73 56.36 42.2 53.74 42.2 50.51V47.85C42.2 44.39 39.31 41.5 35.85 41.5H28.93ZM35.66 54.91H30.99V43.4H35.66C38.09 43.4 40.18 45.38 40.18 47.88V50.28C40.18 53.01 38.21 54.91 35.66 54.91ZM60.47 43.4V68.1H62.53V43.4H69.63V41.5H53.37V43.4H60.47ZM88.1 68.33C91.75 68.33 94.67 65.74 94.67 61.98V60.35C94.67 56.02 91.03 54.53 88.52 53.96C86.2 53.43 83.58 52.56 83.58 49.44V47.66C83.58 45.19 85.71 43.25 88.1 43.25C90.46 43.25 92.62 45.19 92.62 47.66V48.61H94.67V47.62C94.67 43.97 91.75 41.27 88.1 41.27C84.45 41.27 81.53 43.97 81.53 47.62V49.44C81.53 53.89 85.29 55.29 87.61 55.83C90.04 56.36 92.62 57.23 92.62 60.39V61.94C92.62 64.41 90.49 66.35 88.14 66.35C85.74 66.35 83.58 64.41 83.58 61.94V61.07H81.53V61.98C81.53 65.74 84.45 68.33 88.1 68.33Z" fill="#0000DC"/>
</g>
<defs>
<clipPath id="clip0_0_1">
<rect width="170" height="68" fill="white"/>
</clipPath>
</defs>
</svg>
