<?xml version="1.0" encoding="UTF-8"?>
<svg id="Vrstva_1" data-name="Vrstva 1" xmlns="http://www.w3.org/2000/svg" viewBox="0 0 2034.16 169.27">
  <defs>
    <style>
      .cls-1 {
        fill: #fff;
      }

      .cls-2 {
        fill: none;
      }

      .cls-3 {
        fill: #040305;
      }

      .cls-4 {
        fill: #808285;
      }

      .cls-5 {
        fill: #008691;
      }

      .cls-6 {
        fill: #034ea2;
      }

      .cls-7 {
        fill: #f6ec42;
      }

      .cls-8 {
        fill: #448e99;
      }

      .cls-9 {
        fill: #ff5d81;
      }
    </style>
  </defs>
  <g>
    <g>
      <g>
        <path class="cls-8" d="M940.66,30.21l13.52-8.05h-4.27l-12.42,5.6-12.63-5.6h-4.03l13.62,8.05h6.22ZM947.23,73.65c5.93-1.91,10.32-5.21,10.91-9.91,0-6.59-7.7-9.21-15.27-10.77-11-2.19-18.82-4.01-20.05-8.78-.18-.48-.26-1-.24-1.51.24-5.21,7.45-8.32,14.06-8.32s11,.87,15.29,4.88l3.67-1.2c-4.78-4.26-11.26-5.39-18.96-5.39-5.43-.18-10.83.85-15.81,3.01v-13.5h-9.75l-24.87,32.25h-.23l-25.34-32.25h-9.51v39.59h4.64V27.17l27.8,35.19h-8.57v39.5h3.93v-34.51l28.19,35.61h.12l28.38-36.09v35h8.32v-26.21h14.72v36.84h8.57v-36.84h17.71v-1.95l-37.71-.05ZM944.01,71.37v-9.02h-9.75l-7.98,10.34c-3.19-.75-6.12-2.34-8.48-4.62l-4.05,1.49c3.13,2.69,6.94,4.46,11.02,5.11l-15.36,19.91h-.24l-25.04-31.89,28.34-36.02v35.07h8.34v-9.7c5.41,1.82,10.93,3.25,16.54,4.29,9.05,1.95,11.75,5.39,11.75,8.69,0,2.57-1.84,4.83-5.09,6.38"/>
        <polygon class="cls-4" points="779.78 122.36 781.76 122.36 787.02 133.67 792.37 122.36 794.2 122.36 794.2 134.84 792.96 134.84 793.02 123.44 787.73 134.84 786.31 134.84 780.87 123.44 780.99 134.84 779.78 134.84 779.78 122.36"/>
        <rect class="cls-4" x="798.96" y="122.36" width="1.25" height="12.48"/>
        <polygon class="cls-4" points="804.96 122.36 806.55 122.36 815.28 133.55 815.28 122.36 816.49 122.36 816.49 134.84 814.83 134.84 806.17 123.65 806.17 134.84 804.96 134.84 804.96 122.36"/>
        <rect class="cls-4" x="821.26" y="122.36" width="1.25" height="12.48"/>
        <path class="cls-4" d="M828.05,130.72h0c0,1.89,1.53,3.15,3.94,3.15s3.88-1.03,3.88-2.55-1.01-1.74-3.11-2.15l-2.66-.47c-1.98-.35-2.95-1.37-2.95-3.11,0-2.14,1.74-3.6,4.74-3.6s4.85,1.44,4.92,3.82h-1.25c-.16-1.74-1.39-2.69-3.63-2.69s-3.48.97-3.48,2.4,1.03,1.74,3.11,2.12l2.38.42c2.26.4,3.28,1.37,3.28,3.21,0,2.4-1.86,3.84-5.07,3.84s-5.33-1.74-5.33-4.26v-.17h1.27l-.03.05Z"/>
        <polygon class="cls-4" points="844.78 123.51 839.97 123.51 839.97 122.36 850.85 122.36 850.85 123.51 846.02 123.51 846.02 134.84 844.78 134.84 844.78 123.51"/>
        <polygon class="cls-4" points="854.08 122.36 863.67 122.36 863.67 123.52 855.33 123.52 855.33 127.89 863.03 127.89 863.03 129.07 855.33 129.07 855.33 133.66 863.67 133.66 863.67 134.84 854.08 134.84 854.08 122.36"/>
        <path class="cls-4" d="M867.67,122.36h5.98c2.97,0,4.48,1.13,4.48,3.35.15,1.43-.77,2.75-2.15,3.11,1.41.23,1.74.89,1.91,2.36-.04,1.24.16,2.49.61,3.65h-1.46c-.28-1.17-.45-2.37-.5-3.58-.16-1.29-.87-1.74-2.43-1.74h-5.21v5.35h-1.25l.03-12.51ZM868.92,123.52v4.78h4.59c2.31,0,3.35-.64,3.35-2.4s-1.09-2.38-3.48-2.38h-4.47Z"/>
        <path class="cls-4" d="M883.28,130.72h0c0,1.89,1.53,3.15,3.96,3.15s3.86-1.03,3.86-2.55-.99-1.74-3.11-2.15l-2.66-.47c-1.98-.35-2.95-1.37-2.95-3.11,0-2.14,1.74-3.6,4.76-3.6s4.83,1.44,4.9,3.82h-1.25c-.14-1.74-1.39-2.69-3.61-2.69s-3.48.97-3.48,2.4,1.03,1.74,3.11,2.12l2.36.42c2.26.4,3.28,1.37,3.28,3.21,0,2.4-1.84,3.84-5.06,3.84s-5.33-1.74-5.33-4.26v-.17h1.25l-.03.05Z"/>
        <polygon class="cls-4" points="900.01 123.51 895.2 123.51 895.2 122.36 906.08 122.36 906.08 123.51 901.26 123.51 901.26 134.84 900.01 134.84 900.01 123.51"/>
        <polygon class="cls-4" points="907.93 122.36 909.29 122.36 914.31 133.76 919.32 122.36 920.69 122.36 915.09 134.84 913.51 134.84 907.93 122.36"/>
        <path class="cls-4" d="M929.59,135.17c-3.63,0-6.58-2.92-6.59-6.55,0-3.63,2.92-6.58,6.55-6.59,3.63,0,6.58,2.92,6.59,6.55v.02c.3,3.33-2.15,6.27-5.48,6.57-.36.03-.72.03-1.07,0M934.8,128.6c-.08-2.88-2.47-5.15-5.35-5.07-2.88.08-5.15,2.47-5.07,5.35.08,2.82,2.39,5.07,5.21,5.07,2.69.2,5.03-1.83,5.22-4.52.02-.28.02-.56-.01-.84"/>
        <path class="cls-4" d="M948.32,130.72h0c0,1.89,1.55,3.15,3.96,3.15s3.88-1.03,3.88-2.55-1.01-1.74-3.11-2.15l-2.66-.47c-1.98-.35-2.95-1.37-2.95-3.11,0-2.14,1.74-3.6,4.74-3.6s4.83,1.44,4.92,3.82h-1.25c-.16-1.74-1.41-2.69-3.63-2.69s-3.48.97-3.48,2.4,1.03,1.74,3.11,2.12l2.38.42c2.26.4,3.28,1.37,3.28,3.21,0,2.4-1.86,3.84-5.07,3.84s-5.33-1.74-5.33-4.26v-.17h1.25l-.03.05ZM953.97,118.55h1.34l-2.31,2.55h-1.42l-2.4-2.55h1.34l1.74,1.84,1.72-1.84Z"/>
        <polygon class="cls-4" points="961.68 122.36 962.92 122.36 962.92 129.19 970.65 122.36 972.37 122.36 966.5 127.59 972.37 134.84 970.79 134.84 965.58 128.39 962.92 130.72 962.92 134.84 961.68 134.84 961.68 122.36"/>
        <path class="cls-4" d="M981.03,135.17c-3.63,0-6.57-2.94-6.57-6.57s2.94-6.57,6.57-6.57c3.63,0,6.57,2.94,6.57,6.57h0c.3,3.33-2.15,6.27-5.48,6.57-.36.03-.73.03-1.09,0M986.33,128.6c-.08-2.88-2.47-5.15-5.35-5.07-2.88.08-5.15,2.47-5.07,5.35.07,2.79,2.33,5.03,5.12,5.07,2.7.23,5.07-1.76,5.3-4.46.03-.3.02-.6,0-.89"/>
        <polygon class="cls-4" points="991.66 122.36 992.89 122.36 992.89 133.66 1000.75 133.66 1000.75 134.84 991.66 134.84 991.66 122.36"/>
        <path class="cls-4" d="M1005.21,130.72h0c0,1.89,1.55,3.15,3.96,3.15s3.88-1.03,3.88-2.55-1.01-1.74-3.11-2.15l-2.66-.47c-2-.35-2.95-1.37-2.95-3.11,0-2.14,1.74-3.6,4.74-3.6s4.83,1.44,4.9,3.82h-1.23c-.16-1.74-1.41-2.69-3.63-2.69s-3.48.97-3.48,2.4,1.03,1.74,3.11,2.12l2.36.42c2.28.4,3.28,1.37,3.28,3.21,0,2.4-1.84,3.84-5.06,3.84s-5.33-1.74-5.33-4.26v-.17h1.25l-.03.05Z"/>
        <polygon class="cls-4" points="1021.97 123.51 1017.14 123.51 1017.14 122.36 1028.03 122.36 1028.03 123.51 1023.2 123.51 1023.2 134.84 1021.97 134.84 1021.97 123.51"/>
        <polygon class="cls-4" points="1029.87 122.36 1031.25 122.36 1036.25 133.76 1041.26 122.36 1042.63 122.36 1037.02 134.84 1035.45 134.84 1029.87 122.36"/>
        <path class="cls-4" d="M1045.98,122.36h1.25v12.48h-1.25v-12.48ZM1047.62,118.55h1.58l-2.05,2.55h-1.01l1.48-2.55Z"/>
        <path class="cls-4" d="M1052.62,133.33h1.41v2.02c0,1.2-.31,1.82-1.41,2.19v-.8c.44-.2.69-.67.63-1.15v-.75h-.63v-1.51Z"/>
        <polygon class="cls-4" points="800.89 141.74 802.54 141.74 806.9 151.14 811.33 141.74 812.86 141.74 812.86 152.09 811.84 152.09 811.89 142.62 807.49 152.09 806.31 152.09 801.81 142.62 801.9 152.09 800.89 152.09 800.89 141.74"/>
        <polygon class="cls-4" points="816.46 141.74 817.48 141.74 817.48 151.12 824 151.12 824 152.09 816.46 152.09 816.46 141.74"/>
        <path class="cls-4" d="M830.45,141.68h1.18l4.73,10.43h-1.06l-1.44-3.2h-5.67l-1.46,3.2h-1.06l4.78-10.43ZM833.4,147.84l-2.36-5.21-2.4,5.21h4.76ZM831.82,138.52h1.27l-1.74,2.12h-.85l1.32-2.12Z"/>
        <path class="cls-4" d="M846.87,142.67c2.2,2.4,2.2,6.08,0,8.48-1.27.78-2.77,1.11-4.26.94h-3.77v-10.41h3.77c1.48-.17,2.98.16,4.26.94M839.92,142.62v8.43h2.73c1.2.13,2.41-.1,3.48-.66,1.08-.86,1.62-2.23,1.44-3.6.15-1.33-.39-2.64-1.44-3.48-1.12-.56-2.38-.78-3.63-.64l-2.57-.05Z"/>
        <polygon class="cls-4" points="851.61 141.74 859.57 141.74 859.57 142.69 852.64 142.69 852.64 146.32 859.03 146.32 859.03 147.3 852.64 147.3 852.64 151.12 859.57 151.12 859.57 152.09 851.61 152.09 851.61 141.74"/>
        <path class="cls-4" d="M861.85,151.09l7.61-8.39h-7.23v-1.01h8.69v.96l-7.77,8.39h7.77v1.08h-9.05l-.02-1.03ZM868.44,138.57h1.15l-1.98,2.12h-1.18l-2.05-2.12h1.11l1.48,1.53,1.48-1.53Z"/>
        <polygon class="cls-4" points="873.74 141.74 881.69 141.74 881.69 142.69 874.78 142.69 874.78 146.32 881.17 146.32 881.17 147.3 874.78 147.3 874.78 151.12 881.69 151.12 881.69 152.09 873.74 152.09 873.74 141.74"/>
        <path class="cls-4" d="M894.21,141.68h1.18l4.73,10.43h-.99l-1.46-3.2h-5.67l-1.56,3.2h-1.06l4.83-10.43ZM897.16,147.84l-2.36-5.21-2.38,5.21h4.74Z"/>
        <polygon class="cls-4" points="911.22 142.69 907.21 142.69 907.21 141.74 916.24 141.74 916.24 142.69 912.24 142.69 912.24 152.09 911.22 152.09 911.22 142.69"/>
        <path class="cls-4" d="M918.64,141.68h7.96v.96h-6.95v3.63h6.39v.99h-6.39v3.81h6.95v1.04h-7.96v-10.43ZM924.18,138.52h1.09l-1.98,2.12h-1.18l-2-2.12h1.11l1.48,1.53,1.48-1.53Z"/>
        <polygon class="cls-4" points="929.64 141.74 930.68 141.74 930.68 151.12 937.18 151.12 937.18 152.09 929.64 152.09 929.64 141.74"/>
        <path class="cls-4" d="M943.82,152.37c-3.01,0-5.46-2.44-5.46-5.46s2.44-5.46,5.46-5.46,5.45,2.43,5.46,5.44c.25,2.76-1.78,5.21-4.55,5.46-.3.03-.61.03-.91,0M948.22,146.9c-.03-2.43-2.02-4.37-4.45-4.34s-4.37,2.02-4.34,4.45c.03,2.41,1.99,4.34,4.4,4.34,2.24.19,4.21-1.46,4.4-3.7.02-.25.02-.5,0-.75"/>
        <polygon class="cls-4" points="950.94 141.74 952.07 141.74 956.24 151.21 960.38 141.74 961.53 141.74 956.89 152.09 955.57 152.09 950.94 141.74"/>
        <path class="cls-4" d="M967.38,147.63l-4.47-5.94h1.32l3.65,5.06,3.7-5.06h1.29l-4.47,5.89v4.54h-1.03v-4.48ZM968.88,138.57h1.3l-1.74,2.12h-.85l1.29-2.12Z"/>
        <path class="cls-4" d="M980.35,142.47c-2.25-.17-4.21,1.51-4.38,3.76-.02.22-.02.45,0,.67-.22,2.22,1.39,4.19,3.61,4.41.19.02.37.02.56.02,1.97.14,3.73-1.2,4.14-3.13h1.11c-.4,2.53-2.66,4.34-5.21,4.17-3.01-.21-5.27-2.82-5.05-5.83.2-2.78,2.46-4.96,5.25-5.06,2.32-.28,4.45,1.34,4.8,3.65h-1.04c-.4-1.71-2.02-2.86-3.77-2.66"/>
        <polygon class="cls-4" points="988.18 141.74 989.23 141.74 989.23 146.06 995.95 146.06 995.95 141.74 997 141.74 997 152.09 995.95 152.09 995.95 147.04 989.23 147.04 989.23 152.09 988.18 152.09 988.18 141.74"/>
        <path class="cls-4" d="M1005.53,152.37c-3.01,0-5.46-2.43-5.47-5.44,0-3.01,2.43-5.46,5.44-5.47,3.01,0,5.46,2.43,5.47,5.44.25,2.76-1.79,5.2-4.55,5.46-.3.03-.59.03-.89,0M1009.91,146.9c-.03-2.43-2.02-4.37-4.45-4.34-2.43.03-4.37,2.02-4.34,4.45.03,2.41,2,4.35,4.41,4.34,2.23.19,4.19-1.45,4.39-3.68.02-.26.02-.51,0-.77"/>
        <polygon class="cls-4" points="1012.63 141.74 1013.76 141.74 1017.94 151.21 1022.09 141.74 1023.22 141.74 1018.58 152.09 1017.27 152.09 1012.63 141.74"/>
        <polygon class="cls-4" points="1029.07 147.63 1024.61 141.74 1025.93 141.74 1029.6 146.79 1033.3 141.74 1034.57 141.74 1030.12 147.63 1030.12 152.09 1029.07 152.09 1029.07 147.63"/>
      </g>
      <rect class="cls-2" x="741.26" y="-16.98" width="352.24" height="208.8"/>
    </g>
    <g>
      <g>
        <rect class="cls-1" x="61.95" y="19.39" width="203.11" height="137.93"/>
        <rect class="cls-6" x="65.86" y="23.18" width="195.31" height="130.21"/>
        <polygon class="cls-7" points="159.35 51.54 163.47 48.53 167.59 51.54 166.03 46.67 170.21 43.67 165.05 43.67 163.47 38.75 161.89 43.67 156.73 43.67 160.92 46.67 159.35 51.54"/>
        <polygon class="cls-7" points="138.01 57.27 142.13 54.27 146.27 57.27 144.69 52.41 148.88 49.4 143.71 49.4 142.13 44.47 140.55 49.4 135.41 49.4 139.58 52.41 138.01 57.27"/>
        <polygon class="cls-7" points="126.53 60.11 124.96 65.04 119.8 65.04 123.99 68.05 122.41 72.91 126.53 69.91 130.65 72.91 129.08 68.05 133.27 65.04 128.11 65.04 126.53 60.11"/>
        <polygon class="cls-7" points="120.81 91.21 124.93 94.2 123.36 89.35 127.55 86.35 122.39 86.35 120.81 81.41 119.23 86.35 114.07 86.35 118.26 89.35 116.69 94.2 120.81 91.21"/>
        <polygon class="cls-7" points="128.11 107.7 126.53 102.77 124.96 107.7 119.8 107.7 123.99 110.71 122.41 115.58 126.53 112.57 130.65 115.58 129.08 110.71 133.27 107.7 128.11 107.7"/>
        <polygon class="cls-7" points="143.75 123.34 142.17 118.41 140.6 123.34 135.44 123.34 139.61 126.35 138.05 131.22 142.17 128.21 146.29 131.22 144.72 126.35 148.91 123.34 143.75 123.34"/>
        <polygon class="cls-7" points="165.05 129.01 163.47 124.07 161.89 129.01 156.73 129.01 160.92 132.02 159.35 136.88 163.47 133.88 167.59 136.88 166.03 132.02 170.21 129.01 165.05 129.01"/>
        <polygon class="cls-7" points="186.34 123.34 184.78 118.41 183.2 123.34 178.03 123.34 182.22 126.35 180.66 131.22 184.78 128.21 188.9 131.22 187.31 126.35 191.5 123.34 186.34 123.34"/>
        <polygon class="cls-7" points="201.98 107.7 200.4 102.77 198.82 107.7 193.67 107.7 197.86 110.71 196.28 115.58 200.4 112.57 204.54 115.58 202.95 110.71 207.14 107.7 201.98 107.7"/>
        <polygon class="cls-7" points="212.81 86.28 207.65 86.28 206.06 81.36 204.5 86.3 199.34 86.28 203.51 89.28 201.95 94.15 206.06 91.14 210.18 94.15 208.62 89.28 212.81 86.28"/>
        <polygon class="cls-7" points="196.28 72.85 200.4 69.84 204.54 72.85 202.95 67.98 207.14 64.97 201.98 64.97 200.4 60.06 198.84 64.99 193.67 64.97 197.86 67.98 196.28 72.85"/>
        <polygon class="cls-7" points="184.83 44.48 183.27 49.4 178.1 49.4 182.27 52.41 180.71 57.27 184.85 54.27 188.95 57.27 187.38 52.41 191.57 49.4 186.41 49.4 184.83 44.48"/>
        <path class="cls-6" d="M305.24,66.54c1.6.12,3.2-.25,4.59-1.06.95-.69,1.49-1.83,1.42-3.01.02-.7-.14-1.39-.49-2-.35-.59-.82-1.1-1.39-1.49-.68-.5-1.41-.92-2.19-1.25-.87-.38-1.84-.76-2.95-1.15s-2.19-.83-3.21-1.3c-.99-.44-1.91-1.02-2.73-1.74-.8-.71-1.45-1.57-1.91-2.54-.5-1.12-.74-2.34-.71-3.56-.12-2.62.99-5.15,3.01-6.83,2.35-1.76,5.25-2.63,8.18-2.47,1.81-.02,3.61.2,5.35.66,1.28.34,2.51.83,3.67,1.46l-1.74,4.73c-1.09-.61-2.26-1.06-3.48-1.34-1.26-.31-2.56-.47-3.86-.47-1.3-.07-2.59.27-3.68.97-.87.63-1.36,1.66-1.3,2.73-.03.64.13,1.27.43,1.82.33.53.75,1,1.25,1.37.59.43,1.23.8,1.89,1.09.77.37,1.57.7,2.38.97,1.51.56,2.85,1.13,4.05,1.74,1.1.5,2.11,1.17,2.99,2,.81.78,1.45,1.72,1.88,2.76.46,1.24.68,2.55.64,3.88.13,2.61-1.02,5.12-3.08,6.73-2.68,1.73-5.84,2.53-9.02,2.28-1.22,0-2.43-.08-3.63-.26-.99-.13-1.96-.34-2.92-.63-.83-.24-1.56-.5-2.19-.75-.51-.22-1-.46-1.48-.73l1.74-4.76c1.08.57,2.22,1.03,3.39,1.39,1.66.49,3.39.73,5.13.7"/>
        <path class="cls-6" d="M338.26,58.91c.12-2.09-.5-4.15-1.74-5.84-1.39-1.5-3.4-2.27-5.44-2.09h-1.63c-.59.05-1.17.15-1.74.31v13.9c.61.39,1.27.71,1.96.94.84.3,1.72.44,2.61.43,1.76.19,3.5-.57,4.55-2,1.02-1.68,1.51-3.63,1.41-5.6M343.97,58.87c.02,1.72-.22,3.44-.71,5.09-.43,1.45-1.13,2.8-2.07,3.98-.89,1.12-2.04,2.01-3.35,2.59-1.43.64-2.99.95-4.55.92-1.06,0-2.12-.13-3.15-.42-.81-.22-1.6-.53-2.35-.92v9.38h-5.61v-32.03c1.15-.31,2.55-.59,4.22-.87,1.72-.28,3.47-.42,5.21-.42,1.78-.04,3.55.25,5.21.87,1.45.55,2.77,1.41,3.86,2.52,1.09,1.14,1.92,2.5,2.45,3.98.59,1.67.88,3.44.85,5.21"/>
        <path class="cls-6" d="M365.9,58.77c.11-2.02-.44-4.02-1.55-5.72-1.87-2.4-5.33-2.83-7.73-.96-.36.28-.68.6-.96.96-1.12,1.69-1.66,3.69-1.55,5.72-.14,2.05.39,4.08,1.51,5.8,1.82,2.4,5.25,2.87,7.65,1.04.39-.3.74-.65,1.04-1.04,1.11-1.71,1.66-3.73,1.55-5.77M371.6,58.8c.02,1.77-.26,3.54-.83,5.21-.49,1.49-1.28,2.86-2.33,4.03-1.02,1.12-2.27,2-3.67,2.59-1.5.63-3.12.95-4.74.92-1.62.03-3.23-.29-4.73-.92-1.39-.6-2.63-1.48-3.65-2.59-1.06-1.17-1.87-2.54-2.38-4.03-.59-1.67-.88-3.44-.85-5.21-.03-1.77.26-3.54.85-5.21.53-1.48,1.34-2.83,2.4-4,1.03-1.11,2.29-1.98,3.68-2.57,1.48-.61,3.07-.92,4.67-.9,1.61,0,3.2.3,4.69.9,1.4.58,2.66,1.46,3.68,2.57,1.04,1.17,1.85,2.52,2.38,4,.58,1.68.87,3.44.85,5.21"/>
        <path class="cls-6" d="M385.84,71.35c-1.4,0-2.79-.19-4.14-.56-.97-.28-1.87-.78-2.62-1.46-.65-.65-1.12-1.47-1.36-2.36-.28-1.05-.41-2.13-.4-3.21v-27.8l5.6-.92v27.8c-.02.58.04,1.17.17,1.74.09.44.28.84.57,1.18.3.34.69.6,1.13.75.59.19,1.2.32,1.82.38l-.78,4.47Z"/>
        <path class="cls-6" d="M411,70.13c-1.08.28-2.48.57-4.21.87-1.89.3-3.79.44-5.7.43-1.66.05-3.32-.23-4.87-.83-1.23-.49-2.31-1.28-3.15-2.31-.82-1.02-1.42-2.21-1.74-3.48-.35-1.47-.51-2.99-.5-4.5v-13.55h5.6v12.6c-.15,1.92.24,3.85,1.15,5.56.94,1.2,2.43,1.82,3.94,1.65h2.15c.58-.03,1.17-.1,1.74-.23v-19.65h5.6l-.02,23.44Z"/>
        <path class="cls-6" d="M442.4,70.88h-5.6v-24.19h5.6v24.19ZM443.06,39.6c.04.94-.33,1.85-1.03,2.48-.65.61-1.51.94-2.4.94-.91.02-1.79-.32-2.45-.94-.69-.64-1.07-1.55-1.03-2.48-.04-.96.33-1.89,1.03-2.55.67-.61,1.54-.95,2.45-.92.89-.01,1.75.32,2.4.92.7.66,1.07,1.59,1.03,2.55M428.06,35.03c1-.01,2,.08,2.99.28.65.14,1.29.33,1.91.56l-.87,4.54c-.51-.17-1.02-.31-1.55-.42-.65-.12-1.32-.18-1.98-.17-1.44-.17-2.86.38-3.81,1.48-.74,1.14-1.1,2.48-1.04,3.84v1.62h8.88v4.62h-8.88v19.52h-5.53v-25.91c-.16-2.67.72-5.31,2.45-7.35,2-1.86,4.69-2.8,7.42-2.59"/>
        <path class="cls-6" d="M449.58,47.47c1.38-.37,2.79-.66,4.21-.87,1.9-.29,3.82-.43,5.73-.42,1.69-.05,3.37.22,4.95.8,1.23.48,2.32,1.26,3.16,2.28.84,1.01,1.43,2.2,1.74,3.48.34,1.48.5,2.99.49,4.5v13.61h-5.6v-12.69c.02-1.11-.07-2.21-.26-3.3-.12-.79-.4-1.55-.82-2.22-.39-.56-.94-1-1.58-1.25-.78-.28-1.6-.42-2.43-.4-.74,0-1.49.05-2.22.14l-1.74.24v19.52h-5.6l-.03-23.41Z"/>
        <path class="cls-6" d="M485.15,66.95c1.31.03,2.63-.07,3.93-.28v-6.2c-.44-.12-.89-.21-1.34-.28-.64-.09-1.29-.14-1.95-.14-.63,0-1.26.05-1.88.14-.6.07-1.19.25-1.74.5-.49.24-.92.6-1.23,1.04-.32.52-.48,1.13-.45,1.74-.12,1.08.36,2.14,1.25,2.76,1.03.56,2.2.82,3.37.76M484.64,46.15c1.59-.04,3.17.2,4.67.7,1.15.39,2.19,1.06,3.02,1.95.78.86,1.34,1.9,1.63,3.02.33,1.28.49,2.59.49,3.91v14.67c-.87.2-2.17.42-3.91.68-1.96.27-3.93.4-5.91.38-1.34.01-2.67-.13-3.98-.42-1.11-.23-2.15-.69-3.08-1.34-.86-.61-1.54-1.44-1.98-2.4-.51-1.15-.76-2.41-.71-3.67-.03-1.21.24-2.4.8-3.48.53-.95,1.29-1.75,2.21-2.33.98-.63,2.07-1.08,3.21-1.3,1.25-.26,2.53-.39,3.81-.38.65,0,1.3.04,1.95.1.73.09,1.46.22,2.17.4v-.92c0-.63-.07-1.25-.23-1.86-.15-.57-.43-1.1-.82-1.55-.41-.47-.94-.83-1.53-1.04-.76-.27-1.57-.39-2.38-.36-1.19-.01-2.39.08-3.56.28-.89.13-1.77.35-2.62.64l-.63-4.64c1.01-.32,2.05-.56,3.09-.73,1.43-.26,2.89-.39,4.34-.38"/>
        <path class="cls-6" d="M501.33,47.47c1.39-.37,2.8-.66,4.22-.87,1.9-.29,3.82-.43,5.73-.42,1.69-.05,3.37.22,4.95.8,1.23.48,2.32,1.26,3.16,2.28.83,1.01,1.42,2.2,1.74,3.48.33,1.48.49,2.99.49,4.5v13.61h-5.6v-12.69c.02-1.11-.07-2.21-.26-3.3-.13-.79-.41-1.55-.83-2.22-.38-.57-.93-1.01-1.56-1.25-.78-.28-1.6-.42-2.43-.4-.74,0-1.49.05-2.22.14-.76.1-1.34.17-1.74.24v19.52h-5.61l-.03-23.41Z"/>
        <path class="cls-6" d="M527.05,58.8c-.01-1.71.27-3.41.83-5.02.52-1.49,1.34-2.86,2.4-4.03,1.04-1.16,2.32-2.08,3.75-2.69,1.58-.67,3.29-1,5-.97,2.22-.01,4.42.41,6.48,1.25l-1.22,4.59c-.71-.3-1.44-.54-2.19-.7-.86-.19-1.73-.29-2.61-.28-1.9-.13-3.74.63-5,2.05-1.25,1.67-1.86,3.72-1.74,5.8-.11,2.03.46,4.04,1.62,5.72,1.38,1.53,3.41,2.31,5.46,2.1.95,0,1.89-.09,2.82-.28.83-.15,1.64-.38,2.42-.7l.78,4.62c-.89.4-1.83.68-2.8.83-1.27.26-2.56.39-3.86.38-1.85.04-3.68-.29-5.4-.96-1.45-.58-2.74-1.48-3.79-2.64-1.03-1.16-1.79-2.53-2.24-4.01-.5-1.64-.76-3.35-.75-5.07"/>
        <path class="cls-6" d="M565.9,58.77c.11-2.02-.44-4.02-1.55-5.72-1.87-2.4-5.33-2.83-7.73-.96-.36.28-.68.6-.96.96-1.12,1.69-1.66,3.69-1.55,5.72-.12,2.04.42,4.06,1.55,5.77,1.82,2.4,5.25,2.87,7.65,1.04.39-.3.74-.65,1.04-1.04,1.11-1.71,1.66-3.73,1.55-5.77M571.64,58.77c.02,1.77-.26,3.54-.83,5.21-.51,1.51-1.32,2.89-2.4,4.07-1.02,1.12-2.28,2.01-3.68,2.59-3.03,1.23-6.42,1.23-9.45,0-1.39-.6-2.63-1.48-3.65-2.59-1.06-1.17-1.87-2.54-2.38-4.03-.59-1.67-.88-3.44-.85-5.21-.03-1.77.26-3.54.85-5.21.53-1.48,1.34-2.83,2.4-4,1.03-1.11,2.29-1.98,3.68-2.57,1.48-.61,3.07-.92,4.67-.9,1.61,0,3.2.3,4.69.9,1.4.58,2.65,1.45,3.67,2.57,1.05,1.16,1.87,2.52,2.4,4,.58,1.68.87,3.44.85,5.21"/>
        <path class="cls-6" d="M583.05,70.88c-1.54-3.17-3.13-6.82-4.76-10.93-1.62-4.12-3.09-8.55-4.43-13.26h5.94c.35,1.36.75,2.82,1.2,4.36s.92,3.13,1.42,4.67,1.04,3.08,1.58,4.54,1.04,2.78,1.51,3.96c.47-1.18.96-2.48,1.49-3.96s1.04-2.97,1.55-4.54,1.01-3.11,1.48-4.67.85-3.01,1.2-4.36h5.79c-1.34,4.71-2.82,9.14-4.43,13.26s-3.21,7.75-4.76,10.93h-4.78Z"/>
        <path class="cls-6" d="M616.19,36.77l-7.54,7.32-2.78-2.48,6.79-8.1,3.53,3.27ZM609.66,66.94c1.32.03,2.64-.07,3.94-.28v-6.19c-.45-.12-.9-.21-1.36-.28-.64-.09-1.28-.14-1.93-.14-.63,0-1.26.05-1.88.14-.6.08-1.19.25-1.74.5-.49.24-.9.6-1.22,1.04-.34.51-.5,1.12-.47,1.74-.12,1.08.36,2.14,1.25,2.76,1.03.55,2.2.82,3.37.76M609.19,46.15c1.59-.03,3.17.2,4.67.7,1.15.4,2.18,1.07,3.02,1.95.77.87,1.32,1.9,1.62,3.02.34,1.28.5,2.59.49,3.91v14.67c-.87.2-2.17.42-3.91.68-1.95.27-3.92.4-5.89.38-1.34.01-2.67-.13-3.98-.42-1.11-.23-2.15-.68-3.08-1.34-.86-.62-1.54-1.44-2-2.4-.51-1.15-.75-2.41-.71-3.67-.03-1.21.25-2.41.82-3.48.5-.98,1.24-1.82,2.15-2.43.98-.63,2.07-1.07,3.21-1.3,1.26-.26,2.54-.39,3.82-.38.61,0,1.25,0,1.95.1.73.09,1.46.23,2.17.4v-.92c0-.63-.08-1.25-.24-1.86-.15-.57-.42-1.1-.8-1.55-.41-.47-.94-.83-1.53-1.04-.77-.26-1.57-.39-2.38-.36-1.19-.01-2.39.08-3.56.28-.9.13-1.78.35-2.64.64l-.7-4.54c1.02-.32,2.06-.56,3.11-.73,1.43-.27,2.89-.39,4.34-.38"/>
        <path class="cls-6" d="M625.85,47.47c1.38-.37,2.79-.66,4.21-.87,1.9-.29,3.82-.43,5.73-.42,1.69-.05,3.37.22,4.95.8,1.23.47,2.32,1.26,3.16,2.28.84,1.01,1.44,2.2,1.74,3.48.34,1.48.5,2.99.49,4.5v13.61h-5.6v-12.69c.01-1.11-.07-2.21-.24-3.3-.13-.79-.41-1.55-.83-2.22-.39-.56-.94-1-1.58-1.25-.78-.28-1.6-.42-2.43-.4-.74,0-1.47.05-2.21.14l-1.74.24v19.52h-5.65v-23.41Z"/>
        <path class="cls-6" d="M669.06,58.77c.11-2.02-.44-4.02-1.55-5.72-1.87-2.4-5.33-2.83-7.73-.96-.36.28-.68.6-.96.96-1.11,1.69-1.65,3.7-1.55,5.72-.11,2.04.43,4.06,1.55,5.77,1.82,2.4,5.25,2.87,7.65,1.04.39-.3.74-.65,1.04-1.04,1.11-1.71,1.66-3.73,1.55-5.77M674.79,58.77c.02,1.77-.26,3.54-.83,5.21-.5,1.5-1.3,2.88-2.35,4.07-1.03,1.12-2.29,2-3.68,2.59-1.49.61-3.1.92-4.71.89-1.62.03-3.22-.29-4.71-.92-1.4-.58-2.66-1.45-3.7-2.55-1.05-1.17-1.86-2.54-2.38-4.03-.59-1.67-.88-3.44-.85-5.21-.03-1.77.26-3.54.85-5.21.53-1.48,1.35-2.84,2.42-4,1.03-1.11,2.28-1.98,3.67-2.57,3.01-1.21,6.36-1.21,9.37,0,1.4.58,2.66,1.46,3.68,2.57,1.04,1.17,1.85,2.52,2.38,4,.59,1.67.88,3.44.85,5.21"/>
        <polygon class="cls-6" points="297.49 126.39 297.49 94.34 318.06 94.34 318.06 99.28 303.31 99.28 303.31 107.2 316.45 107.2 316.45 112.05 303.31 112.05 303.31 121.43 319.18 121.43 319.18 126.39 297.49 126.39"/>
        <path class="cls-6" d="M329.57,126.39c-1.55-3.18-3.15-6.81-4.76-10.93-1.71-4.34-3.19-8.76-4.43-13.26h5.96c.35,1.36.75,2.82,1.18,4.38s.94,3.11,1.44,4.66,1.04,3.08,1.58,4.54,1.04,2.78,1.51,3.96c.47-1.18.96-2.48,1.49-3.96s1.04-2.97,1.55-4.54.99-3.11,1.46-4.66.87-3.02,1.22-4.38h5.7c-1.26,4.49-2.74,8.92-4.45,13.26-1.62,4.12-3.21,7.75-4.76,10.93h-4.69Z"/>
        <path class="cls-6" d="M361.42,107.24c-.63-.2-1.28-.36-1.93-.49-.94-.17-1.89-.25-2.85-.24-.66,0-1.32.06-1.96.17-.49.08-.98.19-1.46.33v19.38h-5.6v-23.03c1.32-.47,2.68-.85,4.05-1.15,1.77-.36,3.58-.54,5.39-.52.43-.02.87-.02,1.3,0,.49,0,.99.1,1.48.17l1.44.28c.45.12.83.21,1.11.31l-.97,4.78Z"/>
        <path class="cls-6" d="M382.41,114.27c.11-2.02-.44-4.02-1.55-5.72-1.87-2.4-5.33-2.83-7.73-.96-.36.28-.68.6-.96.96-1.11,1.69-1.65,3.7-1.55,5.72-.11,2.04.44,4.07,1.55,5.79,1.84,2.4,5.28,2.85,7.67,1.01.38-.29.72-.63,1.01-1.01,1.11-1.72,1.65-3.74,1.55-5.79M388.15,114.27c.02,1.77-.26,3.54-.83,5.21-.51,1.49-1.31,2.85-2.36,4.01-1.02,1.12-2.27,2-3.67,2.59-1.5.63-3.12.95-4.74.92-1.62.03-3.22-.29-4.71-.92-1.39-.59-2.64-1.47-3.67-2.59-1.05-1.17-1.85-2.54-2.38-4.01-.59-1.67-.87-3.44-.85-5.21-.03-1.77.26-3.54.85-5.21.53-1.48,1.34-2.83,2.4-4,1.04-1.1,2.29-1.98,3.68-2.57,3.01-1.21,6.36-1.21,9.37,0,1.4.58,2.66,1.46,3.68,2.57,1.04,1.17,1.85,2.52,2.38,4,.59,1.67.88,3.44.85,5.21"/>
        <path class="cls-6" d="M409.99,114.41c.12-2.09-.5-4.15-1.74-5.84-1.39-1.48-3.39-2.25-5.42-2.07h-1.74c-.59.03-1.17.13-1.74.3v13.9c.61.4,1.27.71,1.96.94.84.3,1.72.45,2.61.45,1.75.14,3.45-.65,4.47-2.09,1.02-1.68,1.52-3.63,1.42-5.6M415.55,114.31c.02,1.72-.23,3.44-.73,5.09-.36,1.43-.99,2.78-1.84,3.98-.9,1.11-2.05,2-3.35,2.59-1.43.64-2.99.95-4.55.92-1.92.03-3.81-.43-5.51-1.34v9.4h-5.7v-31.97c1.15-.3,2.54-.59,4.21-.87,1.72-.28,3.47-.42,5.21-.42,1.75-.02,3.48.27,5.13.87,1.45.56,2.77,1.42,3.86,2.52,1.08,1.14,1.92,2.5,2.45,3.98.59,1.67.89,3.44.87,5.21"/>
        <path class="cls-6" d="M427.56,122.37c1.1.06,2.21-.12,3.23-.54.68-.34,1.09-1.06,1.03-1.82,0-.81-.42-1.56-1.09-2-1.11-.73-2.32-1.32-3.58-1.74-.95-.34-1.89-.73-2.8-1.18-.8-.38-1.53-.87-2.19-1.46-.63-.56-1.13-1.24-1.46-2.02-.39-.91-.57-1.9-.54-2.88-.07-2.03.84-3.97,2.45-5.21,1.93-1.38,4.28-2.06,6.66-1.93,1.37,0,2.74.13,4.08.4.99.18,1.96.44,2.9.76l-1.01,4.54c-.76-.33-1.55-.58-2.36-.76-1.1-.24-2.21-.36-3.34-.35-.95-.04-1.9.16-2.76.57-.66.33-1.08,1-1.08,1.74,0,.36.06.73.21,1.06.17.34.42.64.73.85.42.31.87.58,1.34.8.66.3,1.34.57,2.03.8,1.15.41,2.28.9,3.37,1.46.85.41,1.62.96,2.29,1.62.59.58,1.04,1.28,1.32,2.05.3.9.44,1.84.42,2.78.11,2.07-.87,4.04-2.57,5.21-2.21,1.31-4.77,1.92-7.33,1.74-1.75.05-3.51-.13-5.21-.54-.92-.23-1.84-.52-2.73-.85l.97-4.67c.97.39,1.96.71,2.97.97,1.29.33,2.63.49,3.96.47"/>
        <path class="cls-6" d="M448.24,111.63l2.26-2.38,2.45-2.54,2.19-2.47c.7-.78,1.3-1.46,1.74-2.05h6.62c-1.55,1.74-3.18,3.48-4.88,5.37s-3.48,3.65-5.21,5.4c1.06.87,2.07,1.81,3.02,2.8,1.01,1.09,2,2.26,2.95,3.48s1.84,2.47,2.68,3.7,1.51,2.38,2.07,3.48h-6.46c-.56-.96-1.2-1.96-1.93-3.01s-1.49-2.07-2.33-3.06-1.74-1.91-2.55-2.78c-.78-.82-1.63-1.58-2.54-2.26v11.1h-5.6v-35l5.6-.92-.07,21.13Z"/>
        <path class="cls-6" d="M483.06,114.27c.11-2.02-.44-4.02-1.55-5.72-1.87-2.4-5.33-2.83-7.73-.96-.36.28-.68.6-.96.96-1.11,1.69-1.65,3.7-1.55,5.72-.11,2.04.44,4.07,1.55,5.79,1.84,2.4,5.28,2.85,7.67,1.01.38-.29.72-.63,1.01-1.01,1.11-1.72,1.65-3.74,1.55-5.79M488.8,114.27c.02,1.77-.26,3.54-.83,5.21-.51,1.48-1.3,2.85-2.35,4.01-1.03,1.12-2.29,2-3.68,2.59-1.5.63-3.12.95-4.74.92-1.62.03-3.22-.29-4.71-.92-1.39-.59-2.64-1.47-3.67-2.59-1.05-1.17-1.85-2.54-2.38-4.01-.59-1.67-.87-3.44-.85-5.21-.03-1.77.26-3.54.85-5.21.53-1.48,1.35-2.84,2.42-4,1.03-1.11,2.28-1.98,3.67-2.57,3.01-1.21,6.36-1.21,9.37,0,1.4.58,2.66,1.46,3.68,2.57,1.04,1.17,1.85,2.52,2.38,4,.59,1.67.88,3.44.85,5.21"/>
        <path class="cls-6" d="M514.43,125.66c-1.08.28-2.48.56-4.21.85-1.88.3-3.79.45-5.7.43-1.67.05-3.33-.23-4.88-.83-1.22-.5-2.31-1.29-3.15-2.31-.82-1.02-1.41-2.21-1.74-3.48-.35-1.48-.51-3-.5-4.52v-13.55h5.61v12.67c-.14,1.92.25,3.85,1.13,5.56.93,1.22,2.43,1.88,3.96,1.74.68,0,1.39,0,2.15-.1.58-.03,1.17-.11,1.74-.23v-19.69h5.6l-.02,23.46Z"/>
        <path class="cls-6" d="M552.17,125.66c-1.08.28-2.48.56-4.21.85-1.88.3-3.79.45-5.7.43-1.67.05-3.33-.23-4.88-.83-1.22-.5-2.31-1.29-3.15-2.31-.82-1.02-1.41-2.21-1.74-3.48-.35-1.48-.51-3-.5-4.52v-13.55h5.6v12.67c-.14,1.92.25,3.85,1.13,5.56.93,1.22,2.43,1.88,3.96,1.74.68,0,1.39,0,2.15-.1.58-.03,1.17-.11,1.74-.23v-19.69h5.6v23.46Z"/>
        <path class="cls-6" d="M559.3,102.98c1.39-.36,2.79-.65,4.21-.87,1.9-.29,3.82-.43,5.73-.42,1.69-.05,3.37.22,4.95.8,1.23.48,2.32,1.26,3.16,2.28.83,1.01,1.42,2.2,1.74,3.48.34,1.48.5,3,.49,4.52v13.59h-5.6v-12.69c.02-1.11-.07-2.21-.26-3.3-.12-.79-.4-1.55-.83-2.22-.38-.57-.93-1.01-1.56-1.25-.78-.28-1.61-.41-2.43-.38-.74,0-1.49.04-2.22.14-.76,0-1.34.16-1.74.23v19.52h-5.63v-23.41Z"/>
        <path class="cls-6" d="M591.97,126.39h-5.56v-24.19h5.56v24.19ZM592.56,95.11c.04.94-.32,1.86-1.01,2.5-1.39,1.23-3.48,1.23-4.87,0-.68-.65-1.05-1.56-1.01-2.5-.05-.96.32-1.89,1.01-2.55,1.39-1.23,3.48-1.23,4.87,0,.69.66,1.06,1.6,1.01,2.55"/>
        <path class="cls-6" d="M604.76,126.39h-5.6v-24.19h5.6v24.19ZM608.6,92.38l-7.54,7.32-2.78-2.5,6.81-8.1,3.51,3.28Z"/>
      </g>
      <rect class="cls-2" x=".11" y="-42.48" width="740.35" height="259.8"/>
    </g>
  </g>
  <g>
    <path class="cls-3" d="M1677.92,70.75c1.82-1.82,3.98-3.15,6.3-4.15,2.32-.83,4.81-1.33,7.13-1.33,2.99,0,5.81.66,8.46,1.99,2.65,1.33,4.98,3.15,6.8,5.47s2.99,5.14,3.15,8.46v1h-37.66c.33-1.49.66-2.99,1.16-4.15,1.33-2.99,2.82-5.47,4.64-7.3h.02ZM1718.56,89.16c1-.83,1.49-1.82,1.49-3.15,0-4.48-1-8.63-2.49-12.28-1.66-3.65-3.65-6.64-6.3-9.29-2.65-2.65-5.64-4.64-9.12-5.97s-6.97-1.99-10.62-1.99c-4.98,0-9.62,1.33-14.1,3.82-4.48,2.65-7.96,6.3-10.78,11.28s-4.15,10.78-4.15,17.75c0,6.3,1.33,11.78,3.98,16.42,2.65,4.81,6.3,8.46,11.11,11.28,4.81,2.65,10.45,4.15,16.92,4.15,4.31,0,8.29-1,12.11-2.82s6.8-3.98,9.12-6.47c1.33-1.16,1.99-2.32,1.99-3.65,0-1.16-.33-2.16-1.16-2.82-.83-.83-1.82-1.16-2.82-1.16s-2.16.33-3.15,1c-1,1.16-2.32,2.16-3.82,3.32-1.49,1-3.32,1.99-5.31,2.65-2.16.66-4.48,1-7.3,1-4.48,0-8.46-1-11.78-2.99s-5.97-4.81-7.8-8.29c-1.66-2.99-2.49-6.47-2.82-10.45h43.63c1.16,0,2.16-.5,3.15-1.33h.02Z"/>
    <path class="cls-3" d="M1783.59,88.83c0-4.64-1-8.63-2.82-12.11s-4.48-6.3-7.63-8.29-6.8-2.99-10.78-2.99-7.8,1-10.95,2.99c-3.15,1.99-5.81,4.81-7.8,8.29s-2.82,7.47-2.82,12.11,1,8.63,2.82,12.11c1.99,3.48,4.48,6.3,7.8,8.29,3.15,1.99,6.97,2.99,10.95,2.99s7.63-1,10.78-2.99c3.32-1.99,5.81-4.81,7.63-8.29,1.82-3.65,2.82-7.63,2.82-12.11h0ZM1793.21,88.83c0,6.3-1.33,11.78-4.15,16.59s-6.47,8.63-11.11,11.45-9.95,4.15-15.76,4.15-11.11-1.33-15.76-4.15-8.46-6.64-11.28-11.45-4.15-10.45-4.15-16.59,1.33-11.78,4.15-16.59,6.47-8.63,11.28-11.45c4.64-2.82,9.95-4.15,15.76-4.15s11.11,1.33,15.76,4.15,8.46,6.64,11.11,11.45c2.82,4.81,4.15,10.29,4.15,16.59h0Z"/>
    <path class="cls-3" d="M1803.99,110.07c-.66-1-1-2.16-.83-3.32,0-1.16.66-2.16,1.99-2.99.83-.5,1.82-.83,2.99-.66,1,0,1.99.66,2.99,1.49,2.16,2.65,4.81,4.81,7.63,6.3,2.82,1.49,6.47,2.32,10.62,2.32,1.82,0,3.65-.33,5.64-1,1.99-.5,3.65-1.49,4.98-2.99,1.33-1.33,1.99-3.32,1.99-5.64,0-2.16-.66-3.98-1.99-5.31-1.33-1.33-3.15-2.32-5.31-3.15s-4.48-1.66-6.97-2.16c-2.65-.66-5.31-1.49-7.8-2.32s-4.81-1.99-6.97-3.48c-1.99-1.33-3.65-3.15-4.98-5.31-1.16-2.16-1.82-4.81-1.82-7.8,0-3.65,1-6.64,2.99-9.29s4.64-4.64,7.8-6.14c3.32-1.49,6.97-2.16,10.95-2.16,2.16,0,4.64.33,6.97.83,2.49.5,4.81,1.33,7.13,2.65,2.32,1.16,4.31,2.99,6.14,5.14.66.83,1.16,1.82,1.16,2.99s-.5,2.32-1.49,3.32c-.83.66-1.82,1-2.99.83-1.16,0-1.99-.5-2.65-1.16-1.82-2.16-3.82-3.65-6.47-4.81-2.49-1-5.31-1.66-8.29-1.66-1.82,0-3.65.33-5.47.83-1.82.66-3.32,1.49-4.64,2.82-1.16,1.33-1.82,3.15-1.82,5.31s.83,3.98,2.16,5.31,3.15,2.49,5.47,3.32,4.81,1.66,7.63,2.49c2.49.66,4.98,1.33,7.3,2.16s4.48,1.99,6.47,3.32,3.48,3.15,4.48,5.14c1.16,2.16,1.66,4.81,1.66,7.96,0,3.65-1,6.8-3.15,9.46-2.16,2.65-4.81,4.64-8.13,6.14-3.32,1.33-6.97,2.16-10.95,2.16-4.31,0-8.79-.83-13.11-2.49-4.48-1.49-8.13-4.31-11.28-8.46h-.03Z"/>
    <path class="cls-3" d="M1891.75,56.48c4.15,0,7.8.5,11.11,1.33s5.81,2.16,7.8,3.65,2.82,3.15,2.82,5.14c0,1.16-.33,2.16-1,3.15-.66,1-1.66,1.49-2.99,1.49-1,0-1.82-.17-2.65-.66-.66-.5-1.33-1-1.99-1.49-.66-.66-1.49-1.16-2.49-1.66s-2.32-.83-4.15-1.33c-1.82-.33-3.65-.5-5.47-.5-4.31,0-8.29,1-11.61,3.15-3.32,2.16-5.97,4.81-7.8,8.46-1.99,3.48-2.82,7.47-2.82,11.94s1,8.46,2.82,11.94,4.31,6.3,7.63,8.46,7.13,3.15,11.45,3.15c2.82,0,4.98-.17,6.64-.66,1.66-.5,2.99-1,4.31-1.66,1.33-.83,2.49-1.66,3.15-2.32.83-.83,1.82-1.16,3.15-1.16s2.49.5,3.15,1.33c.83.83,1.16,1.99,1.16,3.15,0,1.49-1,3.15-2.99,4.64-1.99,1.66-4.64,2.99-8.13,3.98-3.48,1-7.3,1.66-11.45,1.66-6.14,0-11.45-1.49-15.93-4.31s-8.13-6.64-10.62-11.61-3.82-10.45-3.82-16.42,1.33-11.61,3.82-16.42c2.65-4.81,6.14-8.79,10.78-11.61,4.64-3.48,10.12-4.81,16.09-4.81h.03Z"/>
    <path class="cls-5" d="M1574.73,61.62c-5.31-3.32-11.28-5.14-17.58-5.14s-12.28,1.82-17.58,5.14c-1,.66-1.82,1.82-1.82,3.15-.17,1.33.33,2.65,1.16,3.48l1.82,1.82c.83.83,1.99,1.33,2.99,1.33.83,0,1.49-.17,2.16-.66,3.32-2.16,7.3-3.15,11.28-3.15s7.8,1.16,11.28,3.15c1.66,1,3.82.83,5.31-.66l1.82-1.82c1-1,1.33-2.16,1.16-3.48-.17-1.33-.83-2.49-1.99-3.15h-.01Z"/>
    <path class="cls-9" d="M1552.34,109.9c-9.79-2.32-16.59-10.95-16.59-21.07,0-3.98,1.16-7.96,3.15-11.28,1-1.66.83-3.65-.66-4.98l-1.82-1.82c-.83-.83-2.16-1.33-3.32-1.16s-2.32.83-2.99,1.82c-3.32,5.14-5.14,11.28-5.14,17.42,0,15.1,10.78,28.37,25.55,31.52.33,0,.5.17.83.17.83,0,1.82-.33,2.49-.83,1-.83,1.49-1.99,1.49-3.15v-2.49c0-1.99-1.33-3.65-2.99-4.15h0Z"/>
    <path class="cls-5" d="M1611.06,56.65c-17.75,0-32.35,14.43-32.35,32.35v.33c-.17,10.12-7.47,18.91-17.42,20.9-1.33.33-2.32,1.49-2.32,2.82v4.98c0,.83.33,1.66,1,2.16s1.49.83,2.32.66c15.59-2.49,27.04-15.93,27.04-31.85,0-11.94,9.62-21.57,21.57-21.57s21.57,9.62,21.57,21.57-9.62,21.57-21.57,21.57c-2.99,0-5.31,2.32-5.31,5.31s2.32,5.31,5.31,5.31c17.75,0,32.35-14.43,32.35-32.35.17-17.75-14.27-32.18-32.18-32.18h-.01Z"/>
    <polygon class="cls-3" points="1484.49 153.36 1485.98 153.36 1485.98 24.13 1484.49 24.13 1484.49 153.36"/>
    <path class="cls-3" d="M1274.97,110.73c2.82,0,4.98-.66,6.47-1.99s2.32-3.15,2.32-5.64c0-2.32-.83-4.15-2.32-5.47s-3.65-2.16-6.3-2.16h-9.12v24.72h3.32v-9.79h5.64v.33h0ZM1269.16,98.29h6.14c1.66,0,2.82.5,3.82,1.33s1.33,1.99,1.33,3.48-.5,2.82-1.33,3.65c-1,.83-2.32,1.16-3.98,1.16h-5.81v-9.62s-.17,0-.17,0ZM1296.2,101.94c-.33-.17-.83-.17-1.33-.17-1.82,0-3.32.83-4.31,2.49v-2.16h-2.99v18.41h3.15v-13.11c.66-1.82,2.16-2.65,4.15-2.65.5,0,1,0,1.49.17l-.17-2.99h0ZM1298.03,111.23c0,2.82.83,5.14,2.32,6.97,1.49,1.66,3.65,2.65,6.14,2.65,1.66,0,3.15-.33,4.48-1.16s2.32-1.82,2.99-3.32,1-2.99,1-4.81v-.17c0-2.82-.83-5.14-2.32-6.97-1.49-1.66-3.65-2.65-6.14-2.65-1.66,0-2.99.33-4.31,1.16s-2.32,1.82-2.99,3.32c-.66,1.49-1,2.99-1,4.81l-.17.17h0ZM1302.5,106.08c1-1.16,2.16-1.82,3.82-1.82s2.82.66,3.82,1.82c1,1.33,1.49,2.82,1.49,4.98,0,2.32-.5,3.98-1.49,5.31s-2.16,1.82-3.82,1.82-2.82-.66-3.82-1.82c-1-1.16-1.49-2.82-1.49-4.98.17-2.32.66-4.15,1.49-5.31h0ZM1319.92,118.19c1.33,1.66,3.15,2.65,5.31,2.65s3.98-.66,5.14-2.16v1.66c0,1.49-.5,2.82-1.33,3.65s-1.99,1.33-3.65,1.33c-1.99,0-3.65-.83-4.98-2.49l-1.66,1.82c.66,1,1.66,1.82,2.99,2.32s2.65.83,3.98.83c2.32,0,4.31-.66,5.64-1.99,1.49-1.33,2.16-3.32,2.16-5.64v-17.92h-2.82l-.17,1.99c-1.33-1.66-2.99-2.32-5.31-2.32-2.16,0-3.98.83-5.31,2.49s-1.99,3.98-1.99,6.8.66,5.14,1.99,6.97h0ZM1322.41,106.08c.83-1.16,1.99-1.82,3.65-1.82,1.99,0,3.32.83,4.31,2.65v8.46c-1,1.82-2.32,2.65-4.31,2.65-1.49,0-2.65-.66-3.65-1.82-.83-1.16-1.33-2.82-1.33-4.98s.5-3.98,1.33-5.14h0ZM1347.13,101.94c-.33-.17-.83-.17-1.33-.17-1.82,0-3.32.83-4.31,2.49v-2.16h-3.15v18.41h3.15v-13.11c.66-1.82,2.16-2.65,4.15-2.65.5,0,1,0,1.49.17v-2.99h0ZM1364.05,120.35v-.33c-.5-1-.66-2.32-.66-3.98v-8.46c0-1.82-.66-3.32-1.82-4.31-1.16-1-2.82-1.66-4.98-1.66-1.33,0-2.49.17-3.65.83s-1.99,1.16-2.65,1.99c-.66.83-1,1.82-1,2.65h3.15c0-.83.33-1.49,1.16-1.99s1.66-.83,2.82-.83c1.33,0,2.32.33,2.99,1s1,1.49,1,2.65v1.49h-2.99c-2.65,0-4.64.5-6.14,1.66-1.49,1-2.16,2.49-2.16,4.48,0,1.66.5,2.82,1.82,3.98,1.16,1,2.65,1.49,4.48,1.49,1.99,0,3.82-.83,5.31-2.32.17,1,.33,1.66.5,1.99l2.82-.33h0ZM1352.94,117.2c-.66-.5-1-1.33-1-2.32,0-2.32,1.99-3.32,5.81-3.32h2.49v3.82c-.33.83-1,1.49-1.99,1.99-.83.5-1.82.83-2.82.83-1-.17-1.82-.5-2.49-1h0ZM1368.36,101.94v18.41h3.15v-13.44c.83-1.82,2.16-2.65,4.31-2.65,2.65,0,3.98,1.33,3.98,3.98v12.11h3.15v-12.28c.17-1.16.5-2.16,1.33-2.82s1.66-1,2.99-1c1.49,0,2.49.33,2.99,1,.66.66.83,1.66.83,2.99v12.11h3.15v-12.28c0-4.31-2.16-6.47-6.14-6.47-1.33,0-2.49.33-3.48.83s-1.82,1.33-2.32,2.16c-1-1.99-2.65-2.99-5.31-2.99-2.32,0-4.15.83-5.47,2.32l-.17-1.99h-2.99,0ZM1398.89,101.94v18.41h3.15v-13.44c.83-1.82,2.16-2.65,4.31-2.65,2.65,0,3.98,1.33,3.98,3.98v12.11h3.15v-12.28c.17-1.16.5-2.16,1.33-2.82s1.82-1,2.99-1c1.49,0,2.49.33,2.99,1,.66.66.83,1.66.83,2.99v12.11h3.15v-12.28c0-4.31-2.16-6.47-6.14-6.47-1.33,0-2.49.33-3.48.83s-1.82,1.33-2.32,2.16c-1-1.99-2.65-2.99-5.31-2.99-2.32,0-4.15.83-5.47,2.32l-.17-1.99h-2.99,0ZM1444.18,117.2l-1.99-1.49c-.5.83-1.33,1.33-1.99,1.82-.83.5-1.66.66-2.82.66-1.49,0-2.82-.5-3.82-1.66s-1.49-2.65-1.66-4.48h12.44v-1.33c0-2.99-.66-5.14-1.99-6.8s-3.15-2.32-5.64-2.32c-1.49,0-2.82.33-4.15,1.16s-2.16,1.99-2.99,3.32c-.66,1.49-1,3.15-1,4.98v.5c0,2.82.83,4.98,2.32,6.64s3.65,2.49,6.14,2.49c3.15,0,5.47-1.16,7.13-3.48h.02ZM1439.86,105.59c.83.83,1.16,2.16,1.33,3.65v.17h-9.29c.17-1.66.66-2.99,1.66-3.82.83-1,1.99-1.33,3.15-1.33,1.33,0,2.32.33,3.15,1.33h0Z"/>
    <path class="cls-3" d="M1233,54.82h-3.32v19.24l-12.44-19.24h-3.32v24.72h3.32v-19.08l12.44,19.08h3.32v-24.72h0ZM1252.9,79.71v-.33c-.5-1-.66-2.32-.66-3.98v-8.46c0-1.82-.66-3.32-1.82-4.31s-2.82-1.66-4.98-1.66c-1.33,0-2.49.17-3.65.83s-1.99,1.16-2.65,1.99-1,1.82-1,2.65h3.15c0-.83.33-1.49,1.16-1.99s1.66-.83,2.82-.83c1.33,0,2.32.33,2.99,1,.66.66,1,1.49,1,2.65v1.49h-2.99c-2.65,0-4.64.5-6.14,1.66-1.49,1-2.16,2.49-2.16,4.48,0,1.66.66,2.82,1.82,3.98,1.16,1,2.65,1.49,4.48,1.49,1.99,0,3.82-.83,5.31-2.32.17,1,.33,1.66.5,1.99l2.82-.33h0ZM1241.95,76.39c-.66-.5-1-1.33-1-2.32,0-2.32,1.99-3.32,5.81-3.32h2.49v3.82c-.33.83-1,1.49-1.99,1.99-.83.5-1.82.83-2.82.83-1-.17-1.82-.33-2.49-1h0ZM1258.38,56.81v4.48h-3.32v2.49h3.32v11.45c0,1.49.33,2.82,1,3.65s1.82,1.33,3.15,1.33c.83,0,1.66-.17,2.49-.33v-2.49c-.66.17-1.16.17-1.49.17-.66,0-1.33-.17-1.49-.5-.33-.33-.5-1-.5-1.66v-11.45h3.48v-2.49h-3.48v-4.48l-3.15-.17h-.01ZM1272.15,61.29h-3.15v18.41h3.15v-18.41h0ZM1269.16,57.64c.33.33.83.5,1.33.5.66,0,1-.17,1.33-.5s.5-.83.5-1.33-.17-1-.5-1.33-.83-.5-1.33-.5c-.66,0-1,.17-1.33.5s-.5.83-.5,1.33.17,1,.5,1.33h0ZM1276.29,70.58c0,2.82.83,5.14,2.32,6.97,1.49,1.66,3.65,2.65,6.14,2.65,1.66,0,3.15-.33,4.48-1.16s2.32-1.82,2.99-3.32,1-2.99,1-4.81v-.17c0-2.82-.83-5.14-2.32-6.97-1.49-1.66-3.65-2.65-6.14-2.65-1.66,0-2.99.33-4.31,1.16s-2.32,1.82-2.99,3.32c-.66,1.49-1,2.99-1,4.81l-.17.17h0ZM1280.94,65.44c1-1.16,2.16-1.82,3.82-1.82s2.82.66,3.82,1.82c1,1.33,1.49,2.82,1.49,4.98,0,2.32-.5,3.98-1.49,5.31-1,1.33-2.16,1.82-3.82,1.82s-2.82-.66-3.82-1.82c-1-1.16-1.49-2.82-1.49-4.98,0-2.32.5-4.15,1.49-5.31h0ZM1297.03,61.29v18.41h3.15v-13.11c.5-.83,1-1.66,1.82-2.16s1.66-.83,2.65-.83c1.33,0,2.16.33,2.82,1,.66.66.83,1.66.83,2.99v12.28h3.15v-12.11c0-4.31-1.99-6.64-5.97-6.64-2.32,0-4.15.83-5.47,2.65l-.17-2.32h-2.82v-.17h0ZM1330.87,79.71v-.33c-.5-1-.66-2.32-.66-3.98v-8.46c0-1.82-.66-3.32-1.82-4.31-1.16-1-2.82-1.66-4.98-1.66-1.33,0-2.49.17-3.65.83-1.16.5-1.99,1.16-2.65,1.99-.66.83-1,1.82-1,2.65h3.15c0-.83.33-1.49,1.16-1.99s1.66-.83,2.82-.83c1.33,0,2.32.33,2.99,1s1,1.49,1,2.65v1.49h-2.99c-2.65,0-4.64.5-6.14,1.66-1.49,1-2.16,2.49-2.16,4.48,0,1.66.66,2.82,1.82,3.98,1.16,1,2.65,1.49,4.48,1.49,1.99,0,3.82-.83,5.31-2.32.17,1,.33,1.66.5,1.99l2.82-.33h0ZM1319.92,76.39c-.66-.5-1-1.33-1-2.32,0-2.32,1.99-3.32,5.81-3.32h2.49v3.82c-.33.83-1,1.49-1.99,1.99-.83.5-1.82.83-2.82.83-1-.17-1.82-.33-2.49-1h0ZM1338.67,53.5h-3.15v26.21h3.15v-26.21h0ZM1367.7,71.91c-.33,1.99-1,3.48-1.99,4.31-1,.83-2.32,1.16-4.15,1.16-1.99,0-3.65-.83-4.64-2.32-1.16-1.66-1.66-3.82-1.66-6.47v-2.49c0-2.82.66-4.98,1.82-6.64,1.16-1.49,2.82-2.32,4.98-2.32,1.66,0,2.99.5,3.98,1.33,1,.83,1.49,2.32,1.82,4.31h3.32c-.33-2.65-1.16-4.64-2.82-6.14s-3.65-2.16-6.3-2.16c-1.99,0-3.82.5-5.31,1.33-1.49,1-2.65,2.32-3.48,3.98-.83,1.82-1.16,3.82-1.16,6.14v2.32c0,3.48.83,6.3,2.65,8.46s4.15,3.15,6.97,3.15c2.65,0,4.81-.66,6.47-2.16s2.65-3.48,2.99-6.14h-3.48v.35ZM1388.27,63.45v-2.16h-13.93v2.65h9.95l-10.12,13.44v2.32h14.6v-2.65h-10.78l10.29-13.6h-.01ZM1406.68,76.56l-1.99-1.49c-.5.83-1.33,1.33-1.99,1.82-.83.5-1.66.66-2.82.66-1.49,0-2.82-.5-3.82-1.66s-1.49-2.65-1.66-4.48h12.44v-1.33c0-2.99-.66-5.14-1.99-6.8s-3.15-2.32-5.64-2.32c-1.49,0-2.82.33-4.15,1.16s-2.16,1.99-2.99,3.32c-.83,1.33-1,3.15-1,4.98v.5c0,2.82.83,4.98,2.32,6.64s3.65,2.49,6.14,2.49c3.15,0,5.47-1.16,7.13-3.48h.02ZM1402.37,64.78c.83.83,1.16,2.16,1.33,3.65v.17h-9.29c.17-1.66.66-2.99,1.66-3.82.83-1,1.99-1.33,3.15-1.33,1.33,0,2.49.5,3.15,1.33h0ZM1414.15,75.73c-.83-1.16-1.33-2.82-1.33-4.98v-.66c0-2.16.5-3.82,1.33-4.98s2.16-1.66,3.65-1.66c1.16,0,2.16.33,2.99,1.16s1.33,1.82,1.33,2.99h2.99c-.17-1.99-.83-3.65-2.16-4.81s-3.15-1.82-5.14-1.82c-1.66,0-3.15.33-4.31,1.16-1.16.83-2.16,1.82-2.82,3.32-.66,1.33-1,2.99-1,4.81v.5c0,2.99.66,5.14,2.16,6.8,1.49,1.66,3.48,2.49,5.97,2.49,1.33,0,2.49-.33,3.48-.83,1.16-.5,1.99-1.33,2.65-2.32.66-1,1-1.99,1.16-2.99h-2.99c-.17,1-.5,1.82-1.33,2.49s-1.82,1-2.99,1c-1.49,0-2.82-.5-3.65-1.66h.01ZM1431.9,53.5h-3.15v26.21h3.15v-13.11c.5-.83,1-1.66,1.82-2.16s1.66-.83,2.65-.83c1.33,0,2.16.33,2.82,1,.66.66.83,1.66.83,2.99v12.28h3.15v-12.11c0-4.31-1.99-6.64-5.97-6.64-2.16,0-3.98.83-5.47,2.65v-10.29h.17Z"/>
    <rect class="cls-2" x="1093.24" y="-66.1" width="941.5" height="310.93"/>
  </g>
</svg>