<?xml version="1.0" encoding="UTF-8"?>
<svg id="Vrstva_1" data-name="Vrstva 1" xmlns="http://www.w3.org/2000/svg" viewBox="0 0 154.99 180.76">
  <defs>
    <style>
      .cls-1 {
        fill: #efc08d;
      }

      .cls-2 {
        fill: #232391;
      }
    </style>
  </defs>
  <g>
    <path class="cls-1" d="M101.81,58.85l10.17-28.77H43.01l10.17,28.77s-21.53,15.3-19.74,29.38c1.79,14.08,22.73,62.44,22.73,62.44h42.64s20.93-48.36,22.73-62.44-19.74-29.38-19.74-29.38Z"/>
    <path class="cls-2" d="M101.71,155.08h-48.42l-1.15-2.65c-.87-2-21.2-49.1-23.05-63.63-.92-7.19,2.56-15.1,10.33-23.51,3.16-3.42,6.38-6.21,8.56-7.97l-11.18-31.63h81.41l-11.18,31.63c2.18,1.76,5.4,4.54,8.56,7.97,7.77,8.41,11.24,16.32,10.33,23.51-1.85,14.53-22.19,61.64-23.05,63.63l-1.15,2.65ZM98.82,150.68h0,0ZM59.07,146.28h36.84c6.4-15,19.94-48.22,21.26-58.6.71-5.56-3.94-11.94-7.97-16.32-4.79-5.21-9.91-8.88-9.96-8.92l-2.7-1.92,9.2-26.03h-56.51l9.2,26.04-2.71,1.92c-5.02,3.58-19.11,15.92-17.92,25.24,1.32,10.37,14.86,43.6,21.26,58.6Z"/>
  </g>
  <path class="cls-2" d="M102.81,64.28l-9.87,9.55h-14.11l-14.94,14.42c-1.1-.34-2.26-.42-3.43-.21-1.9.34-3.56,1.4-4.66,2.99h0c-2.28,3.27-1.47,7.79,1.81,10.07,1.23.85,2.65,1.3,4.12,1.3.43,0,.86-.04,1.29-.12,1.9-.34,3.56-1.4,4.66-2.99,1.1-1.59,1.52-3.51,1.18-5.41-.11-.61-.3-1.19-.55-1.74l12.89-12.44h14.12l11.58-11.2-4.08-4.22Z"/>
  <path class="cls-2" d="M75.15,128.24c-1.19-1.52-2.91-2.48-4.83-2.71-3.24-.38-6.23,1.44-7.48,4.28l-13.94.28.12,5.87,13.86-.28c1.01,2.23,3.12,3.9,5.73,4.21.29.03.58.05.87.05,1.61,0,3.17-.54,4.46-1.55,1.52-1.19,2.48-2.91,2.71-4.83.23-1.92-.3-3.81-1.5-5.33Z"/>
  <path class="cls-2" d="M108.41,93.58l13.33-16.27-4.54-3.72-11.57,14.12h-23.5l-.03,19.14c-1.76.76-3.13,2.15-3.85,3.93-.73,1.79-.71,3.76.04,5.54.75,1.78,2.16,3.16,3.95,3.88.88.36,1.8.53,2.71.53s1.91-.19,2.82-.58c1.78-.75,3.16-2.16,3.88-3.95,1.45-3.59-.2-7.68-3.69-9.28l.02-13.35h20.42Z"/>
  <path class="cls-2" d="M82.9,45.43c-1.59-1.1-3.51-1.52-5.41-1.18-1.9.34-3.56,1.4-4.66,2.99-1.1,1.59-1.52,3.51-1.18,5.41.12.67.33,1.3.62,1.9l-10.12,12.78h-19.25v5.87h22.09l11.78-14.88c.65.19,1.32.29,1.98.29,2.29,0,4.54-1.08,5.95-3.1,2.28-3.27,1.47-7.79-1.81-10.07Z"/>
</svg>